<svg xmlns="http://www.w3.org/2000/svg" width="125.254" height="125.254" viewBox="0 0 125.254 125.254">
  <g id="Group_77" data-name="Group 77" transform="translate(-257 -447)">
    <g id="profile_1_" data-name="profile (1)" transform="translate(257 447)">
      <g id="Group_53" data-name="Group 53" transform="translate(1.835 1.835)">
        <g id="Group_46" data-name="Group 46">
          <g id="Group_45" data-name="Group 45">
            <g id="Group_44" data-name="Group 44">
              <g id="Group_43" data-name="Group 43">
                <g id="Group_42" data-name="Group 42">
                  <g id="Group_41" data-name="Group 41">
                    <g id="Group_40" data-name="Group 40">
                      <path id="Path_7" data-name="Path 7" d="M129.084,67.5v99.567a7.339,7.339,0,0,1-7.339,7.339H14.839A7.339,7.339,0,0,1,7.5,167.067V67.5Z" transform="translate(-7.5 -52.822)" fill="#eaf6ff"/>
                      <path id="Path_8" data-name="Path 8" d="M451.839,67.5v99.567a7.339,7.339,0,0,1-7.339,7.339h7.339a7.339,7.339,0,0,0,7.339-7.339V67.5Z" transform="translate(-337.594 -52.822)" fill="#d8ecfe"/>
                      <path id="Path_9" data-name="Path 9" d="M121.745,7.5H14.839A7.339,7.339,0,0,0,7.5,14.839v7.339H129.084V14.839A7.339,7.339,0,0,0,121.745,7.5Z" transform="translate(-7.5 -7.5)" fill="#3f6e90"/>
                      <path id="Path_10" data-name="Path 10" d="M451.839,7.5H444.5a7.339,7.339,0,0,1,7.339,7.339v7.339h7.339V14.839A7.339,7.339,0,0,0,451.839,7.5Z" transform="translate(-337.594 -7.5)" fill="#355f7f"/>
                    </g>
                  </g>
                </g>
              </g>
            </g>
          </g>
        </g>
        <g id="Group_52" data-name="Group 52" transform="translate(23.085 22.093)">
          <circle id="Ellipse_8" data-name="Ellipse 8" cx="37.707" cy="37.707" r="37.707" fill="#fff"/>
          <g id="Group_51" data-name="Group 51" transform="translate(12.526 9.367)">
            <path id="Path_11" data-name="Path 11" d="M194.837,291.31l-6.762-1.431-5-.281a3.726,3.726,0,0,1-2.955-3.646v-7.81h-3.742v7.81a3.726,3.726,0,0,1-2.955,3.646l-5,.281-6.762,1.431a11.181,11.181,0,0,0-8.594,8.487,37.7,37.7,0,0,0,50.361,0A11.182,11.182,0,0,0,194.837,291.31Z" transform="translate(-153.07 -243.392)" fill="#fddf80"/>
            <g id="Group_47" data-name="Group 47" transform="translate(30.143 46.487)">
              <path id="Path_12" data-name="Path 12" d="M276.285,330.315l4.285.907a11.149,11.149,0,0,1,4.09,1.773,6.246,6.246,0,0,1-.217,10.324l-.051.033a37.707,37.707,0,0,0,12.11-7.313,11.181,11.181,0,0,0-8.594-8.487l-6.762-1.431Z" transform="translate(-276.285 -326.122)" fill="#f9d070"/>
            </g>
            <path id="Path_13" data-name="Path 13" d="M215.838,289.879a11.768,11.768,0,0,0,19.65,0l-5-.281a3.726,3.726,0,0,1-2.955-3.646v-7.81h-7.412v7.81a3.726,3.726,0,0,1-2.955,3.646Z" transform="translate(-200.483 -243.392)" fill="#ffcebf"/>
            <path id="Path_14" data-name="Path 14" d="M251.6,293.268l3.806.805a11.823,11.823,0,0,0,4.863-4.194l-.054-.011-1.275-.27a3.726,3.726,0,0,1-2.955-3.646v-7.81h-7.339v11.48A3.726,3.726,0,0,0,251.6,293.268Z" transform="translate(-225.267 -243.392)" fill="#ffb09e"/>
            <g id="Group_50" data-name="Group 50" transform="translate(5.942)">
              <g id="Group_49" data-name="Group 49">
                <g id="Group_48" data-name="Group 48">
                  <path id="Path_15" data-name="Path 15" d="M226.443,157.936H198.129v-16.25a5.589,5.589,0,0,1,5.589-5.589h17.136a5.588,5.588,0,0,1,5.588,5.588v16.251Z" transform="translate(-193.048 -136.097)" fill="#e19974"/>
                  <path id="Path_16" data-name="Path 16" d="M268.365,136.1h-7.339a5.588,5.588,0,0,1,5.588,5.588v16.251h7.339V141.684A5.588,5.588,0,0,0,268.365,136.1Z" transform="translate(-240.559 -136.096)" fill="#dc8758"/>
                  <path id="Path_17" data-name="Path 17" d="M226.443,186.365a14.846,14.846,0,0,1-8.757-6.868.64.64,0,0,0-.976-.164,28.22,28.22,0,0,1-5.078,3.55,29.025,29.025,0,0,1-13.5,3.482v9.072a14.234,14.234,0,0,0,8.617,13.1c1.7.728,5.446.368,5.446.368,1.955,0,3.912.364,5.606-.355a14.234,14.234,0,0,0,8.647-13.111v-9.072Z" transform="translate(-193.048 -168.636)" fill="#ffcebf"/>
                  <path id="Path_18" data-name="Path 18" d="M247.832,183.648a14.931,14.931,0,0,1-3.541-4.151.64.64,0,0,0-.979-.16,28.294,28.294,0,0,1-4.2,3.044,14.787,14.787,0,0,0,1.377,1.267c.335.271.67.518,1,.742a9.749,9.749,0,0,1,4.216,8.085v2.963a12.791,12.791,0,0,1-2.979,8.731,12.967,12.967,0,0,1-9.38,4.367,14.235,14.235,0,0,0,4.015,1.048s.773.083,1.525.083a14.193,14.193,0,0,0,14.157-14.229v-9.072A14.855,14.855,0,0,1,247.832,183.648Z" transform="translate(-219.653 -168.637)" fill="#ffb09e"/>
                  <path id="Path_19" data-name="Path 19" d="M315.6,215.283h-1.731v-6.717H315.6a3.35,3.35,0,0,1,3.35,3.35v.017A3.35,3.35,0,0,1,315.6,215.283Z" transform="translate(-280.474 -190.837)" fill="#ffcebf"/>
                  <path id="Path_20" data-name="Path 20" d="M180.711,215.283h1.731v-6.717h-1.731a3.35,3.35,0,0,0-3.35,3.35v.017A3.35,3.35,0,0,0,180.711,215.283Z" transform="translate(-177.361 -190.837)" fill="#ffb09e"/>
                </g>
              </g>
            </g>
          </g>
        </g>
      </g>
      <path id="Path_21" data-name="Path 21" d="M69.457,59.74a1.835,1.835,0,0,0,1.835-1.835V55.159a1.835,1.835,0,0,0-3.67,0v2.746A1.835,1.835,0,0,0,69.457,59.74ZM55.8,53.324a1.835,1.835,0,0,0-1.835,1.835v2.746a1.835,1.835,0,1,0,3.67,0V55.159A1.835,1.835,0,0,0,55.8,53.324Zm52.668,60.921H26.98a1.835,1.835,0,1,0,0,3.67h81.484a1.835,1.835,0,0,0,0-3.67ZM26.98,109.139H77.337a1.835,1.835,0,1,0,0-3.67H26.98a1.835,1.835,0,1,0,0,3.67ZM84.065,107.3a1.835,1.835,0,0,0,1.835,1.835h22.565a1.835,1.835,0,0,0,0-3.67H85.9a1.835,1.835,0,0,0-1.835,1.835ZM16.789,117.915a1.835,1.835,0,1,0-1.835-1.835A1.835,1.835,0,0,0,16.789,117.915ZM25.04,7.339a1.835,1.835,0,1,0,1.835,1.835A1.835,1.835,0,0,0,25.04,7.339ZM116.08,0H9.174A9.184,9.184,0,0,0,0,9.174V116.08a9.184,9.184,0,0,0,9.174,9.174H116.08a9.184,9.184,0,0,0,9.174-9.174V9.174A9.184,9.184,0,0,0,116.08,0Zm5.5,116.08a5.51,5.51,0,0,1-5.5,5.5H9.174a5.51,5.51,0,0,1-5.5-5.5V18.348H121.584Zm0-101.4H3.67v-5.5a5.51,5.51,0,0,1,5.5-5.5H116.08a5.51,5.51,0,0,1,5.5,5.5ZM17.7,7.339a1.835,1.835,0,1,0,1.835,1.835A1.835,1.835,0,0,0,17.7,7.339Zm-.912,101.8a1.835,1.835,0,1,0-1.835-1.835A1.835,1.835,0,0,0,16.789,109.139Zm45.837-7.963a39.542,39.542,0,1,0-13.46-76.733,1.835,1.835,0,0,0,1.249,3.451,35.865,35.865,0,0,1,38.15,58.494,13.05,13.05,0,0,0-8.973-6.971L71.5,77.7a1.9,1.9,0,0,1-1.5-1.85V74.341A16.085,16.085,0,0,0,78.618,60.1v-.526a5.189,5.189,0,0,0,0-10.376V38.882A7.432,7.432,0,0,0,71.2,31.459H54.059a7.433,7.433,0,0,0-7.424,7.424v10.31a5.189,5.189,0,0,0,0,10.376V60.1a16.085,16.085,0,0,0,8.616,14.246v1.513a1.9,1.9,0,0,1-1.5,1.85l-8.09,1.712a13.05,13.05,0,0,0-8.973,6.971,35.851,35.851,0,0,1,6.341-54.8,1.835,1.835,0,1,0-2.007-3.072,39.545,39.545,0,0,0,21.605,72.664ZM78.619,52.861a1.524,1.524,0,0,1,0,3.04ZM46.635,55.9a1.524,1.524,0,0,1,0-3.04ZM50.3,38.883a3.759,3.759,0,0,1,3.755-3.755H71.2a3.758,3.758,0,0,1,3.754,3.754V48.33a13.015,13.015,0,0,1-5.332-5.091,2.474,2.474,0,0,0-3.775-.628,26.45,26.45,0,0,1-4.748,3.319A27.059,27.059,0,0,1,50.3,49.1Zm0,21.212V52.781a30.778,30.778,0,0,0,12.548-3.63,30.058,30.058,0,0,0,4.34-2.887,16.683,16.683,0,0,0,7.756,6.079V60.1a12.323,12.323,0,1,1-24.645,0ZM69.226,80.724a9.923,9.923,0,0,1-13.2,0,5.588,5.588,0,0,0,2.893-4.87v-.136a15.82,15.82,0,0,0,7.412,0v.136A5.589,5.589,0,0,0,69.226,80.724ZM46.42,83.007l5.608-1.187a13.584,13.584,0,0,0,21.2,0l5.609,1.187a9.364,9.364,0,0,1,6.881,6.058,35.8,35.8,0,0,1-46.176,0A9.364,9.364,0,0,1,46.42,83.007ZM10.362,7.339A1.835,1.835,0,1,0,12.2,9.174,1.835,1.835,0,0,0,10.362,7.339ZM66.245,68.948a1.835,1.835,0,1,0-1.771-3.214,3.816,3.816,0,0,1-3.693,0,1.835,1.835,0,1,0-1.771,3.214,7.485,7.485,0,0,0,7.235,0Z"/>
    </g>
  </g>
</svg>
