<svg xmlns="http://www.w3.org/2000/svg" width="26.137" height="26.137" viewBox="0 0 26.137 26.137">
  <g id="Spinner-1s-200px_1_" data-name="Spinner-1s-200px (1)" transform="translate(-10 -10)">
    <g id="Group_672" data-name="Group 672" transform="translate(22.905 10)">
      <rect id="Rectangle_134" data-name="Rectangle 134" width="0.327" height="5.881" rx="0.163" fill="#0f0fa2" opacity="0.083"/>
    </g>
    <g id="Group_673" data-name="Group 673" transform="translate(29.461 11.669) rotate(30)">
      <rect id="Rectangle_135" data-name="Rectangle 135" width="0.327" height="5.881" rx="0.163" transform="translate(0 0)" fill="#0f0fa2" opacity="0.167"/>
    </g>
    <g id="Group_674" data-name="Group 674" transform="translate(34.304 16.393) rotate(60)">
      <rect id="Rectangle_136" data-name="Rectangle 136" width="0.327" height="5.881" rx="0.163" transform="translate(0 0)" fill="#0f0fa2" opacity="0.25"/>
    </g>
    <g id="Group_675" data-name="Group 675" transform="translate(36.137 22.905) rotate(90)">
      <rect id="Rectangle_137" data-name="Rectangle 137" width="0.327" height="5.881" rx="0.163" fill="#0f0fa2" opacity="0.333"/>
    </g>
    <g id="Group_676" data-name="Group 676" transform="translate(34.468 29.461) rotate(120)">
      <rect id="Rectangle_138" data-name="Rectangle 138" width="0.327" height="5.881" rx="0.163" transform="translate(0 0)" fill="#0f0fa2" opacity="0.417"/>
    </g>
    <g id="Group_677" data-name="Group 677" transform="translate(29.744 34.304) rotate(150)">
      <rect id="Rectangle_139" data-name="Rectangle 139" width="0.327" height="5.881" rx="0.163" transform="translate(0 0)" fill="#0f0fa2" opacity="0.5"/>
    </g>
    <g id="Group_678" data-name="Group 678" transform="translate(23.232 36.137) rotate(180)">
      <rect id="Rectangle_140" data-name="Rectangle 140" width="0.327" height="5.881" rx="0.163" fill="#0f0fa2" opacity="0.583"/>
    </g>
    <g id="Group_679" data-name="Group 679" transform="translate(16.676 34.468) rotate(-150)">
      <rect id="Rectangle_141" data-name="Rectangle 141" width="0.327" height="5.881" rx="0.163" transform="translate(0 0)" fill="#0f0fa2" opacity="0.667"/>
    </g>
    <g id="Group_680" data-name="Group 680" transform="translate(11.833 29.744) rotate(-120)">
      <rect id="Rectangle_142" data-name="Rectangle 142" width="0.327" height="5.881" rx="0.163" transform="translate(0 0)" fill="#0f0fa2" opacity="0.75"/>
    </g>
    <g id="Group_681" data-name="Group 681" transform="translate(10 23.232) rotate(-90)">
      <rect id="Rectangle_143" data-name="Rectangle 143" width="0.327" height="5.881" rx="0.163" fill="#0f0fa2" opacity="0.833"/>
    </g>
    <g id="Group_682" data-name="Group 682" transform="translate(11.669 16.676) rotate(-60)">
      <rect id="Rectangle_144" data-name="Rectangle 144" width="0.327" height="5.881" rx="0.163" fill="#0f0fa2" opacity="0.917"/>
    </g>
    <g id="Group_683" data-name="Group 683" transform="translate(16.393 11.833) rotate(-30)">
      <rect id="Rectangle_145" data-name="Rectangle 145" width="0.327" height="5.881" rx="0.163" fill="#0f0fa2"/>
    </g>
  </g>
</svg>
